<svg width="73" height="52" xmlns="http://www.w3.org/2000/svg"><g fill-rule="nonzero" fill="none"><rect stroke="#C8C7C7" fill="#FFF" x=".5" y=".5" width="72" height="51" rx="5"/><path d="M13.168 26.165c.427.228.781.541 1.061.94.28.397.42.942.42 1.635 0 .634-.136 1.168-.409 1.603a3.217 3.217 0 01-1.06 1.05 4.707 4.707 0 01-1.47.574 7.733 7.733 0 01-1.636.177 7.03 7.03 0 01-2.277-.354c-.651-.22-1.237-.612-1.758-1.172a.15.15 0 01.009-.21l1.55-1.454a.15.15 0 01.212.009c.31.333.64.608.992.827.39.243.866.365 1.426.365.192 0 .39-.023.597-.067.206-.044.398-.118.575-.22.177-.104.32-.233.43-.388a.907.907 0 00.167-.541c0-.368-.14-.641-.42-.818a3.745 3.745 0 00-1.061-.431c-.428-.11-.888-.214-1.382-.31a5.342 5.342 0 01-1.382-.464 2.893 2.893 0 01-1.06-.895c-.28-.383-.42-.914-.42-1.592 0-.589.12-1.101.364-1.536.243-.434.564-.792.962-1.072s.854-.486 1.37-.62a6.284 6.284 0 011.57-.198 6.3 6.3 0 012.1.365c.648.227 1.18.607 1.596 1.138a.15.15 0 01-.019.203l-1.544 1.39a.151.151 0 01-.22-.021c-.505-.635-1.164-.953-1.98-.953-.353 0-.7.089-1.039.265-.339.177-.508.465-.508.863 0 .324.14.56.42.707a4.6 4.6 0 001.061.376c.427.103.888.21 1.382.32.493.11.954.28 1.381.509zm35.807-4.897c.084 0 .153.069.153.153v10.305a.153.153 0 01-.153.153H46.76a.153.153 0 01-.153-.153v-1.55h-.045c-.25.531-.633.992-1.149 1.382-.516.39-1.216.586-2.1.586-.707 0-1.308-.114-1.801-.343a3.238 3.238 0 01-1.205-.928c-.31-.39-.53-.836-.663-1.337a6.113 6.113 0 01-.2-1.57v-6.545c0-.084.069-.153.154-.153h2.346c.085 0 .153.069.153.153v5.219c0 .295.015.623.044.984.03.361.107.7.233 1.016.125.317.316.583.574.796.258.214.623.32 1.095.32.442 0 .814-.073 1.116-.22.302-.147.552-.346.751-.597.2-.25.343-.538.432-.862.088-.324.132-.663.132-1.017V21.42c0-.084.069-.153.153-.153h2.347zm15.483 6.455v-.597h-.553c-.368 0-.781.015-1.238.044-.457.03-.888.1-1.293.21-.405.111-.748.273-1.028.487-.28.214-.42.512-.42.895 0 .25.055.46.166.63.11.17.254.313.431.431s.376.203.597.254c.221.052.442.078.663.078.914 0 1.588-.218 2.023-.652.434-.435.652-1.028.652-1.78zm2.52-2.818c.014.331.022.622.022.873v5.948a.153.153 0 01-.153.153h-2.082a.153.153 0 01-.152-.153V30.42h-.067c-.383.604-.87 1.043-1.459 1.315a4.58 4.58 0 01-1.945.41c-.486 0-.962-.067-1.426-.2a3.86 3.86 0 01-1.238-.597 3.066 3.066 0 01-.873-.994c-.22-.398-.331-.863-.331-1.393 0-.575.103-1.065.309-1.47.206-.405.483-.744.829-1.017.346-.272.748-.49 1.205-.652a8.263 8.263 0 011.426-.365c.493-.08.99-.132 1.492-.154.5-.023.972-.034 1.414-.034h.664v-.287c0-.663-.23-1.16-.686-1.492-.457-.332-1.039-.498-1.746-.498A4.101 4.101 0 0059.459 24a.152.152 0 01-.21-.004l-1.18-1.18a.154.154 0 010-.22 5.124 5.124 0 011.957-1.194 7.606 7.606 0 012.442-.398c.752 0 1.385.085 1.901.254.516.17.943.387 1.283.652.338.266.6.572.784.918.184.346.317.696.398 1.05.081.353.129.696.144 1.028zm-42.442-2.399c.435.487.774 1.087 1.017 1.802.243.715.365 1.536.365 2.465v.576a.153.153 0 01-.153.153h-7.937c.088.796.397 1.415.928 1.857.53.442 1.171.663 1.923.663.663 0 1.22-.136 1.67-.409a4.618 4.618 0 001.089-.918.152.152 0 01.207-.023l1.625 1.298a.154.154 0 01.02.22c-.582.678-1.228 1.168-1.936 1.468a6.128 6.128 0 01-2.41.486 6.368 6.368 0 01-2.254-.398 5.409 5.409 0 01-1.835-1.127 5.343 5.343 0 01-1.227-1.757c-.302-.686-.453-1.448-.453-2.288 0-.84.15-1.603.453-2.288a5.342 5.342 0 011.227-1.758 5.406 5.406 0 011.835-1.127 6.368 6.368 0 012.254-.398c.737 0 1.411.13 2.023.387.611.258 1.135.63 1.57 1.116zm-6.708 3.007h5.437c-.014-.781-.258-1.397-.73-1.846-.47-.45-1.127-.674-1.966-.674-.796 0-1.426.228-1.89.685-.465.457-.749 1.068-.851 1.835zm39.284-4.491c.075.01.13.076.13.151v2.251a.153.153 0 01-.176.151 5.155 5.155 0 00-.275-.038 3.566 3.566 0 00-.312-.014c-.62 0-1.117.114-1.492.343-.376.228-.664.49-.863.784-.198.295-.331.59-.397.885a3.33 3.33 0 00-.1.663v5.528a.153.153 0 01-.153.153h-2.347a.153.153 0 01-.152-.153V21.421c0-.084.068-.153.152-.153h2.347c.085 0 .153.069.153.153v1.527h.044a3.333 3.333 0 011.26-1.437c.545-.338 1.172-.508 1.88-.508.101 0 .202.007.301.019zM38.604 30.64l1.025 1.468a.154.154 0 01-.02.2 4.867 4.867 0 01-6.778-.174 6.407 6.407 0 01-.93-.01 5.932 5.932 0 01-1.698-.394 5.557 5.557 0 01-1.821-1.152 5.398 5.398 0 01-1.218-1.766c-.3-.688-.45-1.448-.45-2.282 0-.834.15-1.591.45-2.271.3-.68.706-1.262 1.218-1.745a5.37 5.37 0 011.821-1.119A6.322 6.322 0 0132.441 21c.79 0 1.536.132 2.239.395a5.37 5.37 0 011.82 1.119 5.314 5.314 0 011.219 1.745c.3.68.45 1.437.45 2.27 0 .835-.15 1.595-.45 2.283-.157.358-.342.69-.556.993a.153.153 0 01-.219.031l-1.791-1.392a.153.153 0 01-.043-.188c.076-.158.142-.323.195-.498a4.115 4.115 0 000-2.447 3.414 3.414 0 00-.56-1.085 2.817 2.817 0 00-.943-.78c-.38-.197-.834-.296-1.36-.296-.527 0-.981.1-1.361.297a2.81 2.81 0 00-.944.779 3.395 3.395 0 00-.56 1.086 4.1 4.1 0 000 2.446c.125.41.311.776.56 1.098.249.322.563.585.944.79.018.01.038.018.057.028.136.068.282.123.435.166a4.97 4.97 0 01-.13-.992.153.153 0 01.13-.154l1.767-.285c.094-.016.18.059.177.155l-.003.086c-.009.302.032.601.118.886a2.788 2.788 0 002.976 1.975 2.805 2.805 0 001.76-.889.152.152 0 01.236.018z" fill="#14A38B"/></g></svg>
