<svg width="56" height="40" xmlns="http://www.w3.org/2000/svg"><g fill-rule="nonzero" fill="none"><rect stroke="#C8C7C7" fill="#FFF" x=".5" y=".5" width="55" height="38.742" rx="4"/><path d="M10.406 19.895c.322.172.588.408.8.708.21.3.316.711.316 1.234 0 .478-.102.88-.308 1.208a2.426 2.426 0 01-.8.792 3.55 3.55 0 01-1.109.433 5.832 5.832 0 01-1.233.134 5.3 5.3 0 01-1.717-.267 3.216 3.216 0 01-1.325-.884.113.113 0 01.006-.16l1.169-1.095a.113.113 0 01.16.007c.234.25.483.458.748.623.295.184.653.275 1.076.275.144 0 .294-.016.45-.05.155-.033.3-.088.433-.166a1.03 1.03 0 00.325-.292.684.684 0 00.125-.408c0-.278-.106-.484-.317-.617a2.824 2.824 0 00-.8-.325c-.322-.084-.67-.161-1.042-.234a4.028 4.028 0 01-1.041-.35 2.182 2.182 0 01-.8-.675c-.212-.289-.317-.689-.317-1.2 0-.444.091-.83.275-1.158.183-.328.425-.598.725-.809.3-.21.644-.367 1.033-.467a4.739 4.739 0 012.767.125c.49.172.89.458 1.205.859a.113.113 0 01-.015.153l-1.165 1.048a.114.114 0 01-.165-.016 1.816 1.816 0 00-1.493-.718c-.267 0-.528.066-.784.2-.255.133-.383.35-.383.65a.56.56 0 00.317.533c.21.111.477.206.8.284.322.077.67.158 1.042.241.372.084.719.211 1.042.384zm27.001-3.693c.064 0 .116.052.116.116v7.77a.115.115 0 01-.116.116h-1.67a.115.115 0 01-.115-.116V22.92h-.033c-.19.4-.478.748-.867 1.042-.39.294-.917.442-1.584.442-.533 0-.986-.086-1.358-.259a2.442 2.442 0 01-.909-.7c-.233-.294-.4-.63-.5-1.008a4.61 4.61 0 01-.15-1.184v-4.935c0-.064.052-.116.116-.116h1.77c.063 0 .115.052.115.116v3.935c0 .222.01.47.033.742.022.272.08.528.175.767.094.239.239.439.433.6.195.16.47.241.826.241.333 0 .613-.055.841-.166.228-.111.417-.261.567-.45a1.79 1.79 0 00.325-.65c.067-.245.1-.5.1-.767v-4.252c0-.064.052-.116.116-.116h1.77zm11.676 4.868v-.45h-.417c-.278 0-.589.011-.933.033-.345.023-.67.075-.976.158a2.23 2.23 0 00-.775.367c-.21.161-.316.386-.316.675 0 .19.041.348.125.475.083.128.191.237.325.325.133.09.283.153.45.192.167.04.333.058.5.058.689 0 1.197-.163 1.525-.491.328-.328.492-.775.492-1.342zm1.9-2.126c.011.25.017.47.017.659v4.485a.115.115 0 01-.115.116h-1.57a.115.115 0 01-.115-.116v-.984h-.05c-.29.455-.656.786-1.1.991a3.454 3.454 0 01-1.468.309c-.366 0-.725-.05-1.075-.15a2.91 2.91 0 01-.933-.45c-.273-.2-.492-.45-.659-.75-.166-.3-.25-.65-.25-1.05 0-.434.078-.803.234-1.11.155-.305.364-.56.625-.766.26-.205.564-.37.908-.492a6.23 6.23 0 011.075-.275c.373-.06.748-.1 1.126-.116.377-.017.733-.025 1.066-.025h.5v-.217c0-.5-.172-.875-.516-1.125-.345-.25-.784-.375-1.317-.375a3.093 3.093 0 00-2.053.759.115.115 0 01-.158-.004l-.89-.89a.116.116 0 010-.165 3.864 3.864 0 011.476-.9c.594-.2 1.208-.3 1.842-.3.566 0 1.044.063 1.433.191.39.128.711.292.967.492s.453.43.592.691c.139.262.239.526.3.792.06.267.097.525.108.775zm-32.005-1.808c.328.367.584.82.767 1.358.183.54.275 1.159.275 1.859v.435a.115.115 0 01-.115.115h-5.986c.067.6.3 1.067.7 1.4.4.334.884.5 1.45.5.5 0 .92-.102 1.26-.308.307-.187.581-.418.82-.692a.115.115 0 01.157-.018l1.225.98c.05.04.058.116.016.165-.44.511-.926.881-1.46 1.107a4.621 4.621 0 01-1.817.367c-.6 0-1.167-.1-1.7-.3a4.079 4.079 0 01-1.384-.85 4.029 4.029 0 01-.925-1.326 4.231 4.231 0 01-.342-1.725c0-.633.114-1.208.342-1.725.227-.517.535-.959.925-1.325.388-.367.85-.65 1.383-.85.534-.2 1.1-.3 1.7-.3.556 0 1.065.097 1.526.291.46.195.855.475 1.183.842zm-5.059 2.267h4.1c-.01-.589-.194-1.053-.55-1.392-.355-.339-.85-.508-1.483-.508-.6 0-1.075.172-1.425.516-.35.345-.564.806-.642 1.384zm29.624-3.386a.114.114 0 01.1.114v1.697c0 .07-.064.125-.134.114a2.69 2.69 0 00-.443-.04c-.467 0-.842.087-1.125.259a1.97 1.97 0 00-.95 1.259c-.05.222-.075.389-.075.5v4.168a.115.115 0 01-.116.116h-1.77a.115.115 0 01-.115-.116v-7.77c0-.064.052-.116.116-.116h1.77c.063 0 .115.052.115.116v1.151h.033c.222-.467.539-.828.95-1.083a2.628 2.628 0 011.644-.37zm-13.956 7.252l.772 1.108a.116.116 0 01-.015.15 3.67 3.67 0 01-5.11-.13 4.831 4.831 0 01-.703-.008 4.474 4.474 0 01-1.28-.297 4.19 4.19 0 01-1.373-.869 4.07 4.07 0 01-.918-1.332 4.26 4.26 0 01-.34-1.721c0-.629.113-1.2.34-1.713.226-.513.532-.951.918-1.315a4.05 4.05 0 011.373-.844A4.768 4.768 0 0124.94 16c.596 0 1.159.1 1.688.298.53.198.987.48 1.374.844.386.364.692.802.918 1.315.226.513.34 1.084.34 1.713s-.114 1.202-.34 1.72a4.25 4.25 0 01-.42.75.115.115 0 01-.164.024l-1.35-1.05a.115.115 0 01-.033-.142c.057-.12.107-.244.147-.375a3.103 3.103 0 000-1.845 2.575 2.575 0 00-.422-.82 2.124 2.124 0 00-.712-.587c-.287-.149-.629-.223-1.026-.223s-.739.074-1.026.223a2.12 2.12 0 00-.711.587 2.56 2.56 0 00-.422.82 3.092 3.092 0 000 1.845c.093.309.234.584.422.827.187.243.424.441.711.596l.043.02c.103.052.213.094.329.126a3.748 3.748 0 01-.099-.748.115.115 0 01.098-.116l1.333-.215a.115.115 0 01.133.117l-.002.065a2.109 2.109 0 003.661 1.487.114.114 0 01.178.013z" fill="#14A38B"/></g></svg>
