<svg width="128" height="27" xmlns="http://www.w3.org/2000/svg"><path d="M15.041 10.837a6.35 6.35 0 012.227 1.972c.587.835.881 1.979.881 3.432 0 1.33-.286 2.451-.858 3.363a6.741 6.741 0 01-2.226 2.203 9.85 9.85 0 01-3.085 1.206 16.236 16.236 0 01-3.432.371c-1.733 0-3.325-.247-4.777-.742-1.367-.464-2.596-1.285-3.688-2.46A.315.315 0 01.1 19.74l3.253-3.05a.314.314 0 01.446.02 10.216 10.216 0 002.082 1.734c.819.51 1.816.766 2.991.766.402 0 .819-.047 1.252-.14a4.056 4.056 0 001.207-.463 2.89 2.89 0 00.905-.812c.232-.325.347-.703.347-1.137 0-.772-.294-1.344-.881-1.716-.588-.37-1.33-.672-2.227-.904a48.465 48.465 0 00-2.899-.65 11.196 11.196 0 01-2.899-.973 6.089 6.089 0 01-2.226-1.879C.864 9.732.57 8.62.57 7.196c0-1.237.254-2.311.764-3.223a6.73 6.73 0 012.02-2.25c.834-.587 1.791-1.02 2.874-1.3A13.19 13.19 0 019.522.006c1.485 0 2.953.256 4.407.766a7.186 7.186 0 013.35 2.389.313.313 0 01-.041.425l-3.24 2.916a.317.317 0 01-.462-.044C12.478 5.126 11.093 4.46 9.383 4.46c-.743 0-1.47.186-2.18.557-.712.37-1.067.975-1.067 1.81 0 .68.293 1.174.88 1.484.588.309 1.33.572 2.227.788.897.217 1.863.44 2.9.673 1.035.231 2.001.588 2.898 1.066zM90.177.563a.32.32 0 01.321.321v21.623a.32.32 0 01-.321.32H85.53a.32.32 0 01-.321-.32v-3.25h-.093c-.525 1.112-1.33 2.08-2.412 2.898-1.083.82-2.55 1.23-4.406 1.23-1.484 0-2.746-.24-3.78-.72-1.038-.479-1.88-1.128-2.529-1.948a7.599 7.599 0 01-1.392-2.806 12.824 12.824 0 01-.417-3.294V.884a.32.32 0 01.321-.321h4.924a.32.32 0 01.321.321v10.95c0 .619.03 1.307.093 2.065a7.38 7.38 0 00.487 2.133 4.056 4.056 0 001.206 1.67c.541.449 1.307.673 2.296.673.928 0 1.71-.154 2.342-.464a4.474 4.474 0 001.578-1.253 4.97 4.97 0 00.905-1.809 8.06 8.06 0 00.278-2.133V.884a.32.32 0 01.32-.321h4.925zM24.818 9.469H36.23c-.032-1.639-.542-2.93-1.532-3.873-.99-.943-2.365-1.415-4.128-1.415-1.67 0-2.992.48-3.966 1.438-.974.959-1.57 2.242-1.786 3.85zM38.896 3.16c.912 1.02 1.623 2.28 2.134 3.78.511 1.5.765 3.223.765 5.172v1.21a.32.32 0 01-.32.32H24.818c.186 1.67.835 2.97 1.948 3.897 1.114.928 2.46 1.392 4.036 1.392 1.392 0 2.559-.285 3.502-.858a9.698 9.698 0 002.287-1.927c.111-.127.3-.15.435-.05l3.41 2.726c.14.114.16.323.042.46-1.222 1.423-2.577 2.452-4.064 3.081a12.86 12.86 0 01-5.055 1.02c-1.67 0-3.247-.278-4.731-.834-1.485-.557-2.769-1.346-3.85-2.366-1.083-1.02-1.941-2.25-2.575-3.688-.634-1.438-.95-3.038-.95-4.8 0-1.763.316-3.363.95-4.8.634-1.439 1.492-2.668 2.574-3.689 1.082-1.02 2.366-1.809 3.85-2.366A13.392 13.392 0 0131.36.006c1.546 0 2.96.271 4.244.812a9.103 9.103 0 013.293 2.343zm83.77 10.946v-1.252h-1.16c-.773 0-1.639.031-2.597.092-.96.063-1.864.21-2.714.44-.85.234-1.57.574-2.157 1.021-.588.449-.881 1.076-.881 1.88 0 .526.116.966.348 1.321.232.357.533.658.904.905a3.8 3.8 0 001.253.533 6.1 6.1 0 001.391.163c1.917 0 3.332-.457 4.244-1.369.912-.91 1.369-2.156 1.369-3.734zm5.288-5.914c.03.696.046 1.308.046 1.832v12.482a.32.32 0 01-.32.32h-4.368a.32.32 0 01-.321-.32v-2.741h-.14c-.804 1.268-1.825 2.188-3.061 2.76-1.237.572-2.598.858-4.082.858-1.02 0-2.017-.14-2.992-.417a8.089 8.089 0 01-2.598-1.252 6.435 6.435 0 01-1.832-2.088c-.463-.834-.695-1.809-.695-2.922 0-1.206.216-2.233.649-3.084a6.337 6.337 0 011.739-2.135 8.81 8.81 0 012.529-1.367 17.39 17.39 0 012.991-.766 26.82 26.82 0 013.132-.325c1.05-.046 2.04-.07 2.968-.07h1.392v-.602c0-1.392-.48-2.436-1.438-3.131-.96-.697-2.18-1.044-3.665-1.044a8.61 8.61 0 00-3.293.626 8.412 8.412 0 00-2.42 1.486.32.32 0 01-.44-.009l-2.477-2.477a.325.325 0 010-.459 10.749 10.749 0 014.108-2.506 15.954 15.954 0 015.125-.835c1.578 0 2.906.177 3.99.533 1.082.356 1.978.811 2.69 1.368.71.556 1.259 1.199 1.646 1.925.386.727.665 1.461.835 2.204.17.741.27 1.46.302 2.156zM107.252.046a.318.318 0 01.274.318v4.723a.32.32 0 01-.37.316 11.853 11.853 0 00-.579-.08 7.58 7.58 0 00-.654-.029c-1.3 0-2.343.24-3.132.72-.787.48-1.39 1.028-1.809 1.646-.416.62-.694 1.237-.835 1.856-.138.618-.208 1.082-.208 1.391v11.6a.32.32 0 01-.32.32h-4.925a.32.32 0 01-.32-.32V.884a.32.32 0 01.32-.321h4.924a.32.32 0 01.32.32v3.205h.094c.618-1.299 1.5-2.303 2.644-3.014 1.144-.712 2.458-1.067 3.943-1.067.214 0 .424.013.633.039zM68.415 20.227l2.15 3.082a.323.323 0 01-.042.42 10.21 10.21 0 01-14.221-.366c-.27.017-.543.028-.818.028-.385 0-.762-.018-1.136-.049a12.483 12.483 0 01-3.561-.826c-1.474-.583-2.748-1.388-3.822-2.417-1.074-1.029-1.926-2.264-2.555-3.707-.63-1.443-.945-3.04-.945-4.788 0-1.75.315-3.339.945-4.767.629-1.427 1.48-2.647 2.555-3.66C48.04 2.164 49.313 1.38 50.787.829a13.28 13.28 0 014.697-.83c1.657 0 3.223.278 4.696.83 1.473.552 2.746 1.335 3.822 2.348 1.074 1.013 1.926 2.233 2.555 3.66.629 1.428.944 3.017.944 4.767 0 1.749-.315 3.345-.944 4.788a11.862 11.862 0 01-1.167 2.085.32.32 0 01-.459.065l-3.758-2.921a.321.321 0 01-.089-.396c.16-.331.297-.677.408-1.043.26-.86.392-1.72.392-2.578 0-.86-.132-1.711-.392-2.556a7.143 7.143 0 00-1.174-2.279 5.91 5.91 0 00-1.98-1.635c-.798-.414-1.75-.622-2.854-.622-1.106 0-2.057.208-2.855.622a5.894 5.894 0 00-1.981 1.635 7.12 7.12 0 00-1.173 2.279 8.587 8.587 0 000 5.134c.26.86.651 1.627 1.173 2.303a6.136 6.136 0 001.98 1.656c.039.021.08.04.12.06.285.143.591.257.914.349a10.387 10.387 0 01-.274-2.082.321.321 0 01.271-.324l3.71-.599a.322.322 0 01.371.327l-.006.18a5.88 5.88 0 00.247 1.86 5.853 5.853 0 006.246 4.145 5.89 5.89 0 003.694-1.866.318.318 0 01.494.036z" fill="#14A38B" fill-rule="evenodd"/></svg>
