<svg width="43" height="30" xmlns="http://www.w3.org/2000/svg"><g fill-rule="nonzero" fill="none"><rect stroke="#C8C7C7" fill="#FFF" x=".5" y=".5" width="42" height="29" rx="3"/><path d="M8.113 14.963c.245.132.448.311.609.54.16.228.24.54.24.938 0 .364-.078.67-.234.92-.157.249-.36.45-.609.602a2.7 2.7 0 01-.843.33 4.437 4.437 0 01-.939.101c-.473 0-.909-.068-1.306-.203a2.447 2.447 0 01-1.008-.672.086.086 0 01.004-.121l.89-.834a.086.086 0 01.122.005c.177.19.367.349.569.474.224.14.497.21.818.21.11 0 .224-.013.342-.038.119-.026.229-.068.33-.127a.783.783 0 00.248-.222.52.52 0 00.095-.311c0-.211-.08-.368-.241-.47a2.149 2.149 0 00-.61-.247c-.244-.063-.509-.122-.792-.177a3.065 3.065 0 01-.792-.266 1.66 1.66 0 01-.61-.514c-.16-.22-.24-.524-.24-.913 0-.338.07-.632.209-.882.14-.25.323-.454.552-.615.228-.16.49-.279.786-.355a3.606 3.606 0 012.106.095c.372.13.677.348.916.653a.086.086 0 01-.011.117l-.887.797a.087.087 0 01-.126-.012 1.382 1.382 0 00-1.135-.547c-.203 0-.402.051-.597.153a.517.517 0 00-.291.494c0 .186.08.322.24.406.161.085.364.157.61.216.245.059.509.12.792.184.283.063.548.16.793.291zm20.545-2.81c.048 0 .087.04.087.089v5.912c0 .049-.039.088-.087.088h-1.27a.088.088 0 01-.088-.088v-.889h-.026a2.136 2.136 0 01-.66.793c-.295.224-.697.336-1.204.336-.406 0-.75-.065-1.034-.196a1.858 1.858 0 01-.691-.533 2.075 2.075 0 01-.38-.767 3.508 3.508 0 01-.115-.901v-3.755c0-.049.04-.088.088-.088h1.346c.049 0 .088.04.088.088v2.994c0 .17.008.357.025.564.017.208.062.402.134.584.071.182.181.334.33.456.147.123.357.184.627.184.254 0 .467-.042.64-.126a1.23 1.23 0 00.432-.343c.114-.144.197-.308.247-.495.051-.185.076-.38.076-.583v-3.235c0-.049.04-.088.088-.088h1.347zm8.883 3.704v-.342h-.317c-.211 0-.448.009-.71.025-.262.017-.51.057-.742.12-.233.064-.43.157-.59.28a.61.61 0 00-.24.514c0 .143.031.264.094.361a.86.86 0 00.248.247c.101.068.215.117.342.146.127.03.254.045.38.045.525 0 .912-.125 1.161-.374.25-.25.374-.59.374-1.022zm1.446-1.617c.009.19.013.358.013.501v3.413c0 .049-.04.088-.088.088h-1.194a.088.088 0 01-.088-.088v-.75h-.038a1.96 1.96 0 01-.837.756c-.338.156-.71.234-1.116.234-.28 0-.552-.038-.818-.114a2.215 2.215 0 01-.71-.342 1.759 1.759 0 01-.502-.571 1.62 1.62 0 01-.19-.8c0-.329.06-.61.178-.843.118-.232.277-.427.475-.583.199-.156.43-.281.692-.374a4.74 4.74 0 01.818-.21 7.26 7.26 0 01.856-.088c.287-.013.558-.02.812-.02h.38v-.164c0-.38-.131-.666-.393-.856-.262-.19-.596-.286-1.002-.286a2.353 2.353 0 00-1.562.578.087.087 0 01-.12-.003l-.678-.677a.088.088 0 010-.125 2.94 2.94 0 011.123-.686c.453-.152.92-.228 1.402-.228.431 0 .794.049 1.09.146.297.097.542.222.736.374.195.152.345.328.45.526.106.199.182.4.229.603.046.203.074.4.082.59zm-24.351-1.376c.249.28.444.624.583 1.034.14.41.21.881.21 1.414v.33c0 .05-.04.089-.088.089h-4.555c.051.456.229.811.533 1.065.304.254.672.38 1.103.38.38 0 .7-.078.958-.234a2.65 2.65 0 00.625-.527.087.087 0 01.12-.013l.932.745a.088.088 0 01.011.126c-.334.389-.704.67-1.11.842-.44.186-.901.28-1.383.28-.457 0-.888-.077-1.294-.23a3.103 3.103 0 01-1.053-.646 3.066 3.066 0 01-.704-1.008 3.22 3.22 0 01-.26-1.313c0-.482.087-.92.26-1.313.174-.393.408-.73.704-1.008.296-.28.647-.495 1.053-.647a3.654 3.654 0 011.294-.228c.422 0 .81.074 1.16.222.35.148.651.361.9.64zm-3.85 1.725h3.12c-.008-.448-.148-.8-.418-1.059-.27-.258-.647-.387-1.129-.387-.457 0-.818.131-1.084.393-.267.263-.43.614-.489 1.053zm22.54-2.576a.087.087 0 01.076.087v1.291a.088.088 0 01-.102.087 2.046 2.046 0 00-.337-.03c-.355 0-.64.065-.856.196a1.498 1.498 0 00-.723.958c-.038.169-.057.296-.057.38v3.172c0 .049-.04.088-.088.088h-1.346a.088.088 0 01-.088-.088v-5.912c0-.049.04-.088.088-.088h1.346c.049 0 .088.04.088.088v.876h.025c.17-.355.41-.63.723-.825a2 2 0 011.252-.28zM22.708 17.53l.588.843a.088.088 0 01-.012.114 2.792 2.792 0 01-3.888-.1 3.676 3.676 0 01-.534-.005 3.404 3.404 0 01-.974-.226 3.188 3.188 0 01-1.045-.661 3.097 3.097 0 01-.699-1.014 3.24 3.24 0 01-.258-1.31c0-.478.086-.912.258-1.302.172-.39.405-.724.699-1.001a3.081 3.081 0 011.045-.642A3.628 3.628 0 0119.171 12c.453 0 .881.076 1.284.227.403.15.752.365 1.045.642.294.277.527.61.7 1a3.2 3.2 0 01.257 1.304c0 .478-.086.915-.258 1.31-.09.205-.196.395-.319.57a.088.088 0 01-.125.017l-1.028-.799a.088.088 0 01-.024-.108 2 2 0 00.111-.285 2.361 2.361 0 000-1.404 1.96 1.96 0 00-.32-.623 1.616 1.616 0 00-.542-.447 1.675 1.675 0 00-.78-.17c-.303 0-.563.057-.781.17a1.612 1.612 0 00-.542.447c-.143.185-.25.392-.32.623a2.353 2.353 0 000 1.404c.07.235.177.445.32.63.143.184.323.335.542.453l.032.016c.078.039.162.07.25.095a2.851 2.851 0 01-.075-.57.088.088 0 01.075-.088l1.014-.163a.088.088 0 01.101.089l-.001.05a1.604 1.604 0 002.785 1.131.087.087 0 01.135.01z" fill="#14A38B"/></g></svg>
